{
    "asset" : {
        "generator" : "Khronos glTF Blender I/O v1.7.33",
        "version" : "2.0"
    },
    "scene" : 0,
    "scenes" : [
        {
            "name" : "Scene",
            "nodes" : [
                8
            ]
        }
    ],
    "nodes" : [
        {
            "mesh" : 0,
            "name" : "Driver Door",
            "translation" : [
                184.8837890625,
                215.10980224609375,
                2.5778450965881348
            ]
        },
        {
            "mesh" : 1,
            "name" : "Front License Plate",
            "translation" : [
                0.23458413779735565,
                585.5201416015625,
                87.36056518554688
            ]
        },
        {
            "mesh" : 2,
            "name" : "Front Wheels",
            "translation" : [
                0.0005610143416561186,
                412.2757568359375,
                51.935089111328125
            ]
        },
        {
            "mesh" : 3,
            "name" : "Hood",
            "translation" : [
                8.014490595087409e-05,
                257.1287841796875,
                -64.652587890625
            ]
        },
        {
            "mesh" : 4,
            "name" : "Passenger Door",
            "translation" : [
                -184.88363647460938,
                215.10980224609375,
                2.5778298377990723
            ]
        },
        {
            "mesh" : 5,
            "name" : "Rear License Plate",
            "translation" : [
                0.23458413779735565,
                -417.633056640625,
                37.07270812988281
            ]
        },
        {
            "mesh" : 6,
            "name" : "Rear Wheels",
            "translation" : [
                0.0005610143416561186,
                -202.913818359375,
                51.935089111328125
            ]
        },
        {
            "mesh" : 7,
            "name" : "Seats",
            "translation" : [
                0.00024043471785262227,
                42.04840087890625,
                5.245857238769531
            ]
        },
        {
            "children" : [
                0,
                1,
                2,
                3,
                4,
                5,
                6,
                7
            ],
            "mesh" : 8,
            "name" : "Chassis",
            "rotation" : [
                0.7071068286895752,
                0,
                0,
                0.7071067094802856
            ],
            "scale" : [
                0.023798750713467598,
                0.023798750713467598,
                0.023798750713467598
            ],
            "translation" : [
                0,
                3.1613500118255615,
                -2.1193442344665527
            ]
        }
    ],
    "materials" : [
        {
            "doubleSided" : true,
            "name" : "Body",
            "pbrMetallicRoughness" : {
                "baseColorTexture" : {
                    "index" : 0
                },
                "metallicFactor" : 0,
                "roughnessFactor" : 0.16818180680274963
            }
        },
        {
            "doubleSided" : true,
            "emissiveFactor" : [
                1,
                1,
                1
            ],
            "emissiveTexture" : {
                "index" : 1
            },
            "name" : "Lights",
            "pbrMetallicRoughness" : {
                "baseColorTexture" : {
                    "index" : 2
                },
                "metallicFactor" : 0,
                "roughnessFactor" : 0.013636350631713867
            }
        }
    ],
    "meshes" : [
        {
            "name" : "Object253.001",
            "primitives" : [
                {
                    "attributes" : {
                        "POSITION" : 0,
                        "NORMAL" : 1,
                        "TEXCOORD_0" : 2
                    },
                    "indices" : 3,
                    "material" : 0
                }
            ]
        },
        {
            "name" : "Plane021.001",
            "primitives" : [
                {
                    "attributes" : {
                        "POSITION" : 4,
                        "NORMAL" : 5,
                        "TEXCOORD_0" : 6
                    },
                    "indices" : 7,
                    "material" : 1
                }
            ]
        },
        {
            "name" : "Object085.001",
            "primitives" : [
                {
                    "attributes" : {
                        "POSITION" : 8,
                        "NORMAL" : 9,
                        "TEXCOORD_0" : 10
                    },
                    "indices" : 11,
                    "material" : 0
                }
            ]
        },
        {
            "name" : "Object004.001",
            "primitives" : [
                {
                    "attributes" : {
                        "POSITION" : 12,
                        "NORMAL" : 13,
                        "TEXCOORD_0" : 14
                    },
                    "indices" : 15,
                    "material" : 0
                }
            ]
        },
        {
            "name" : "Object084.001",
            "primitives" : [
                {
                    "attributes" : {
                        "POSITION" : 16,
                        "NORMAL" : 17,
                        "TEXCOORD_0" : 18
                    },
                    "indices" : 19,
                    "material" : 0
                }
            ]
        },
        {
            "name" : "Plane022.001",
            "primitives" : [
                {
                    "attributes" : {
                        "POSITION" : 20,
                        "NORMAL" : 21,
                        "TEXCOORD_0" : 22
                    },
                    "indices" : 7,
                    "material" : 1
                }
            ]
        },
        {
            "name" : "Object085.002",
            "primitives" : [
                {
                    "attributes" : {
                        "POSITION" : 23,
                        "NORMAL" : 24,
                        "TEXCOORD_0" : 25
                    },
                    "indices" : 26,
                    "material" : 0
                }
            ]
        },
        {
            "name" : "Line002.001",
            "primitives" : [
                {
                    "attributes" : {
                        "POSITION" : 27,
                        "NORMAL" : 28,
                        "TEXCOORD_0" : 29
                    },
                    "indices" : 30,
                    "material" : 0
                }
            ]
        },
        {
            "name" : "s_0106.001",
            "primitives" : [
                {
                    "attributes" : {
                        "POSITION" : 31,
                        "NORMAL" : 32,
                        "TEXCOORD_0" : 33
                    },
                    "indices" : 34,
                    "material" : 0
                },
                {
                    "attributes" : {
                        "POSITION" : 35,
                        "NORMAL" : 36,
                        "TEXCOORD_0" : 37
                    },
                    "indices" : 38,
                    "material" : 1
                }
            ]
        }
    ],
    "textures" : [
        {
            "sampler" : 0,
            "source" : 0
        },
        {
            "sampler" : 0,
            "source" : 1
        },
        {
            "sampler" : 0,
            "source" : 1
        }
    ],
    "images" : [
        {
            "bufferView" : 4,
            "mimeType" : "image/jpeg",
            "name" : "ColorAtlas_Update"
        },
        {
            "bufferView" : 9,
            "mimeType" : "image/jpeg",
            "name" : "ColorAtlas"
        }
    ],
    "accessors" : [
        {
            "bufferView" : 0,
            "componentType" : 5126,
            "count" : 226,
            "max" : [
                52.98100662231445,
                3.437835693359375,
                72.37662506103516
            ],
            "min" : [
                -43.97553634643555,
                -292.89129638671875,
                -139.5392608642578
            ],
            "type" : "VEC3"
        },
        {
            "bufferView" : 1,
            "componentType" : 5126,
            "count" : 226,
            "type" : "VEC3"
        },
        {
            "bufferView" : 2,
            "componentType" : 5126,
            "count" : 226,
            "type" : "VEC2"
        },
        {
            "bufferView" : 3,
            "componentType" : 5123,
            "count" : 741,
            "type" : "SCALAR"
        },
        {
            "bufferView" : 5,
            "componentType" : 5126,
            "count" : 4,
            "max" : [
                59.5888671875,
                0,
                15.65470027923584
            ],
            "min" : [
                -59.5888671875,
                0,
                -15.65470027923584
            ],
            "type" : "VEC3"
        },
        {
            "bufferView" : 6,
            "componentType" : 5126,
            "count" : 4,
            "type" : "VEC3"
        },
        {
            "bufferView" : 7,
            "componentType" : 5126,
            "count" : 4,
            "type" : "VEC2"
        },
        {
            "bufferView" : 8,
            "componentType" : 5123,
            "count" : 6,
            "type" : "SCALAR"
        },
        {
            "bufferView" : 10,
            "componentType" : 5126,
            "count" : 497,
            "max" : [
                218.15594482421875,
                78.70816802978516,
                78.70828247070312
            ],
            "min" : [
                -218.15655517578125,
                -78.70832061767578,
                -78.7087173461914
            ],
            "type" : "VEC3"
        },
        {
            "bufferView" : 11,
            "componentType" : 5126,
            "count" : 497,
            "type" : "VEC3"
        },
        {
            "bufferView" : 12,
            "componentType" : 5126,
            "count" : 497,
            "type" : "VEC2"
        },
        {
            "bufferView" : 13,
            "componentType" : 5123,
            "count" : 1536,
            "type" : "SCALAR"
        },
        {
            "bufferView" : 14,
            "componentType" : 5126,
            "count" : 109,
            "max" : [
                176.95028686523438,
                308.5771484375,
                58.60675048828125
            ],
            "min" : [
                -176.95034790039062,
                -18.8731689453125,
                -3.2652435302734375
            ],
            "type" : "VEC3"
        },
        {
            "bufferView" : 15,
            "componentType" : 5126,
            "count" : 109,
            "type" : "VEC3"
        },
        {
            "bufferView" : 16,
            "componentType" : 5126,
            "count" : 109,
            "type" : "VEC2"
        },
        {
            "bufferView" : 17,
            "componentType" : 5123,
            "count" : 336,
            "type" : "SCALAR"
        },
        {
            "bufferView" : 18,
            "componentType" : 5126,
            "count" : 225,
            "max" : [
                43.975162506103516,
                3.437835693359375,
                72.37664031982422
            ],
            "min" : [
                -52.980892181396484,
                -292.89129638671875,
                -139.53924560546875
            ],
            "type" : "VEC3"
        },
        {
            "bufferView" : 19,
            "componentType" : 5126,
            "count" : 225,
            "type" : "VEC3"
        },
        {
            "bufferView" : 20,
            "componentType" : 5126,
            "count" : 225,
            "type" : "VEC2"
        },
        {
            "bufferView" : 21,
            "componentType" : 5123,
            "count" : 741,
            "type" : "SCALAR"
        },
        {
            "bufferView" : 22,
            "componentType" : 5126,
            "count" : 4,
            "max" : [
                52.0369873046875,
                0,
                13.67074966430664
            ],
            "min" : [
                -52.0369873046875,
                0,
                -13.67074966430664
            ],
            "type" : "VEC3"
        },
        {
            "bufferView" : 23,
            "componentType" : 5126,
            "count" : 4,
            "type" : "VEC3"
        },
        {
            "bufferView" : 24,
            "componentType" : 5126,
            "count" : 4,
            "type" : "VEC2"
        },
        {
            "bufferView" : 25,
            "componentType" : 5126,
            "count" : 494,
            "max" : [
                218.1559600830078,
                78.70822143554688,
                78.70828247070312
            ],
            "min" : [
                -218.1565399169922,
                -78.7083740234375,
                -78.7087173461914
            ],
            "type" : "VEC3"
        },
        {
            "bufferView" : 26,
            "componentType" : 5126,
            "count" : 494,
            "type" : "VEC3"
        },
        {
            "bufferView" : 27,
            "componentType" : 5126,
            "count" : 494,
            "type" : "VEC2"
        },
        {
            "bufferView" : 28,
            "componentType" : 5123,
            "count" : 1536,
            "type" : "SCALAR"
        },
        {
            "bufferView" : 29,
            "componentType" : 5126,
            "count" : 88,
            "max" : [
                144.9957275390625,
                97.61822509765625,
                45.365013122558594
            ],
            "min" : [
                -144.9957275390625,
                -73.43997192382812,
                -118.82598876953125
            ],
            "type" : "VEC3"
        },
        {
            "bufferView" : 30,
            "componentType" : 5126,
            "count" : 88,
            "type" : "VEC3"
        },
        {
            "bufferView" : 31,
            "componentType" : 5126,
            "count" : 88,
            "type" : "VEC2"
        },
        {
            "bufferView" : 32,
            "componentType" : 5123,
            "count" : 168,
            "type" : "SCALAR"
        },
        {
            "bufferView" : 33,
            "componentType" : 5126,
            "count" : 2316,
            "max" : [
                214.21917724609375,
                598.9608154296875,
                97.09566497802734
            ],
            "min" : [
                -214.21905517578125,
                -420.85528564453125,
                -162.06402587890625
            ],
            "type" : "VEC3"
        },
        {
            "bufferView" : 34,
            "componentType" : 5126,
            "count" : 2316,
            "type" : "VEC3"
        },
        {
            "bufferView" : 35,
            "componentType" : 5126,
            "count" : 2316,
            "type" : "VEC2"
        },
        {
            "bufferView" : 36,
            "componentType" : 5123,
            "count" : 6036,
            "type" : "SCALAR"
        },
        {
            "bufferView" : 37,
            "componentType" : 5126,
            "count" : 216,
            "max" : [
                182.71624755859375,
                568.1285400390625,
                1.5803756713867188
            ],
            "min" : [
                -182.71612548828125,
                -380.7630615234375,
                -68.5725326538086
            ],
            "type" : "VEC3"
        },
        {
            "bufferView" : 38,
            "componentType" : 5126,
            "count" : 216,
            "type" : "VEC3"
        },
        {
            "bufferView" : 39,
            "componentType" : 5126,
            "count" : 216,
            "type" : "VEC2"
        },
        {
            "bufferView" : 40,
            "componentType" : 5123,
            "count" : 372,
            "type" : "SCALAR"
        }
    ],
    "bufferViews" : [
        {
            "buffer" : 0,
            "byteLength" : 2712,
            "byteOffset" : 0
        },
        {
            "buffer" : 0,
            "byteLength" : 2712,
            "byteOffset" : 2712
        },
        {
            "buffer" : 0,
            "byteLength" : 1808,
            "byteOffset" : 5424
        },
        {
            "buffer" : 0,
            "byteLength" : 1482,
            "byteOffset" : 7232
        },
        {
            "buffer" : 0,
            "byteLength" : 60884,
            "byteOffset" : 8716
        },
        {
            "buffer" : 0,
            "byteLength" : 48,
            "byteOffset" : 69600
        },
        {
            "buffer" : 0,
            "byteLength" : 48,
            "byteOffset" : 69648
        },
        {
            "buffer" : 0,
            "byteLength" : 32,
            "byteOffset" : 69696
        },
        {
            "buffer" : 0,
            "byteLength" : 12,
            "byteOffset" : 69728
        },
        {
            "buffer" : 0,
            "byteLength" : 61277,
            "byteOffset" : 69740
        },
        {
            "buffer" : 0,
            "byteLength" : 5964,
            "byteOffset" : 131020
        },
        {
            "buffer" : 0,
            "byteLength" : 5964,
            "byteOffset" : 136984
        },
        {
            "buffer" : 0,
            "byteLength" : 3976,
            "byteOffset" : 142948
        },
        {
            "buffer" : 0,
            "byteLength" : 3072,
            "byteOffset" : 146924
        },
        {
            "buffer" : 0,
            "byteLength" : 1308,
            "byteOffset" : 149996
        },
        {
            "buffer" : 0,
            "byteLength" : 1308,
            "byteOffset" : 151304
        },
        {
            "buffer" : 0,
            "byteLength" : 872,
            "byteOffset" : 152612
        },
        {
            "buffer" : 0,
            "byteLength" : 672,
            "byteOffset" : 153484
        },
        {
            "buffer" : 0,
            "byteLength" : 2700,
            "byteOffset" : 154156
        },
        {
            "buffer" : 0,
            "byteLength" : 2700,
            "byteOffset" : 156856
        },
        {
            "buffer" : 0,
            "byteLength" : 1800,
            "byteOffset" : 159556
        },
        {
            "buffer" : 0,
            "byteLength" : 1482,
            "byteOffset" : 161356
        },
        {
            "buffer" : 0,
            "byteLength" : 48,
            "byteOffset" : 162840
        },
        {
            "buffer" : 0,
            "byteLength" : 48,
            "byteOffset" : 162888
        },
        {
            "buffer" : 0,
            "byteLength" : 32,
            "byteOffset" : 162936
        },
        {
            "buffer" : 0,
            "byteLength" : 5928,
            "byteOffset" : 162968
        },
        {
            "buffer" : 0,
            "byteLength" : 5928,
            "byteOffset" : 168896
        },
        {
            "buffer" : 0,
            "byteLength" : 3952,
            "byteOffset" : 174824
        },
        {
            "buffer" : 0,
            "byteLength" : 3072,
            "byteOffset" : 178776
        },
        {
            "buffer" : 0,
            "byteLength" : 1056,
            "byteOffset" : 181848
        },
        {
            "buffer" : 0,
            "byteLength" : 1056,
            "byteOffset" : 182904
        },
        {
            "buffer" : 0,
            "byteLength" : 704,
            "byteOffset" : 183960
        },
        {
            "buffer" : 0,
            "byteLength" : 336,
            "byteOffset" : 184664
        },
        {
            "buffer" : 0,
            "byteLength" : 27792,
            "byteOffset" : 185000
        },
        {
            "buffer" : 0,
            "byteLength" : 27792,
            "byteOffset" : 212792
        },
        {
            "buffer" : 0,
            "byteLength" : 18528,
            "byteOffset" : 240584
        },
        {
            "buffer" : 0,
            "byteLength" : 12072,
            "byteOffset" : 259112
        },
        {
            "buffer" : 0,
            "byteLength" : 2592,
            "byteOffset" : 271184
        },
        {
            "buffer" : 0,
            "byteLength" : 2592,
            "byteOffset" : 273776
        },
        {
            "buffer" : 0,
            "byteLength" : 1728,
            "byteOffset" : 276368
        },
        {
            "buffer" : 0,
            "byteLength" : 744,
            "byteOffset" : 278096
        }
    ],
    "samplers" : [
        {
            "magFilter" : 9729,
            "minFilter" : 9987
        }
    ],
    "buffers" : [
        {
            "byteLength" : 278840,
            "uri" : "data:application/octet-stream;base64,"
        }
    ]
}
