{
    "asset" : {
        "generator" : "Khronos glTF Blender I/O v1.7.33",
        "version" : "2.0"
    },
    "scene" : 0,
    "scenes" : [
        {
            "name" : "Scene",
            "nodes" : [
                6
            ]
        }
    ],
    "nodes" : [
        {
            "mesh" : 0,
            "name" : "hood",
            "translation" : [
                -0.00024043471785262227,
                183.2449493408203,
                -57.33045196533203
            ]
        },
        {
            "mesh" : 1,
            "name" : "lDoor",
            "translation" : [
                -134.46112060546875,
                99.20693969726562,
                -57.330440521240234
            ]
        },
        {
            "mesh" : 2,
            "name" : "Object060",
            "translation" : [
                -8.014490595087409e-05,
                -303.0796203613281,
                -86.47484588623047
            ]
        },
        {
            "mesh" : 3,
            "name" : "Plane011",
            "translation" : [
                -0.07333259284496307,
                389.42608642578125,
                75.61548614501953
            ]
        },
        {
            "mesh" : 4,
            "name" : "Plane012",
            "translation" : [
                -0.07333259284496307,
                -319.1438293457031,
                48.21979904174805
            ]
        },
        {
            "mesh" : 5,
            "name" : "rDoor",
            "translation" : [
                134.46063232421875,
                99.20692443847656,
                -57.330440521240234
            ]
        },
        {
            "children" : [
                0,
                1,
                2,
                3,
                4,
                5
            ],
            "mesh" : 6,
            "name" : "s_0053",
            "rotation" : [
                0.7071068286895752,
                0,
                0,
                0.7071067094802856
            ],
            "scale" : [
                0.023798750713467598,
                0.023798750713467598,
                0.023798750713467598
            ],
            "translation" : [
                5.7220458984375e-06,
                4.735607624053955,
                -0.8610014915466309
            ]
        }
    ],
    "materials" : [
        {
            "doubleSided" : true,
            "name" : "01___Default",
            "pbrMetallicRoughness" : {
                "baseColorTexture" : {
                    "index" : 0
                },
                "metallicFactor" : 0,
                "roughnessFactor" : 0.16818180680274963
            }
        },
        {
            "doubleSided" : true,
            "emissiveFactor" : [
                1,
                1,
                1
            ],
            "emissiveTexture" : {
                "index" : 1
            },
            "name" : "Lights",
            "pbrMetallicRoughness" : {
                "baseColorTexture" : {
                    "index" : 2
                },
                "metallicFactor" : 0,
                "roughnessFactor" : 0.013636350631713867
            }
        }
    ],
    "meshes" : [
        {
            "name" : "Object040",
            "primitives" : [
                {
                    "attributes" : {
                        "POSITION" : 0,
                        "NORMAL" : 1,
                        "TEXCOORD_0" : 2
                    },
                    "indices" : 3,
                    "material" : 0
                }
            ]
        },
        {
            "name" : "Object267",
            "primitives" : [
                {
                    "attributes" : {
                        "POSITION" : 4,
                        "NORMAL" : 5,
                        "TEXCOORD_0" : 6
                    },
                    "indices" : 7,
                    "material" : 0
                }
            ]
        },
        {
            "name" : "Object060",
            "primitives" : [
                {
                    "attributes" : {
                        "POSITION" : 8,
                        "NORMAL" : 9,
                        "TEXCOORD_0" : 10
                    },
                    "indices" : 11,
                    "material" : 0
                }
            ]
        },
        {
            "name" : "Plane011",
            "primitives" : [
                {
                    "attributes" : {
                        "POSITION" : 12,
                        "NORMAL" : 13,
                        "TEXCOORD_0" : 14
                    },
                    "indices" : 15,
                    "material" : 1
                }
            ]
        },
        {
            "name" : "Plane012",
            "primitives" : [
                {
                    "attributes" : {
                        "POSITION" : 16,
                        "NORMAL" : 17,
                        "TEXCOORD_0" : 18
                    },
                    "indices" : 15,
                    "material" : 1
                }
            ]
        },
        {
            "name" : "Object119",
            "primitives" : [
                {
                    "attributes" : {
                        "POSITION" : 19,
                        "NORMAL" : 20,
                        "TEXCOORD_0" : 21
                    },
                    "indices" : 22,
                    "material" : 0
                }
            ]
        },
        {
            "name" : "s_0053",
            "primitives" : [
                {
                    "attributes" : {
                        "POSITION" : 23,
                        "NORMAL" : 24,
                        "TEXCOORD_0" : 25
                    },
                    "indices" : 26,
                    "material" : 0
                },
                {
                    "attributes" : {
                        "POSITION" : 27,
                        "NORMAL" : 28,
                        "TEXCOORD_0" : 29
                    },
                    "indices" : 30,
                    "material" : 1
                }
            ]
        }
    ],
    "textures" : [
        {
            "sampler" : 0,
            "source" : 0
        },
        {
            "sampler" : 0,
            "source" : 0
        },
        {
            "sampler" : 0,
            "source" : 0
        }
    ],
    "images" : [
        {
            "bufferView" : 4,
            "mimeType" : "image/jpeg",
            "name" : "ColorAtlas"
        }
    ],
    "accessors" : [
        {
            "bufferView" : 0,
            "componentType" : 5126,
            "count" : 123,
            "max" : [
                137.0313262939453,
                185.69619750976562,
                41.592620849609375
            ],
            "min" : [
                -137.0311737060547,
                -10.572189331054688,
                -4.8930816650390625
            ],
            "type" : "VEC3"
        },
        {
            "bufferView" : 1,
            "componentType" : 5126,
            "count" : 123,
            "type" : "VEC3"
        },
        {
            "bufferView" : 2,
            "componentType" : 5126,
            "count" : 123,
            "type" : "VEC2"
        },
        {
            "bufferView" : 3,
            "componentType" : 5123,
            "count" : 306,
            "type" : "SCALAR"
        },
        {
            "bufferView" : 5,
            "componentType" : 5126,
            "count" : 190,
            "max" : [
                14.529800415039062,
                10.488601684570312,
                123.45709228515625
            ],
            "min" : [
                -49.66453552246094,
                -173.75100708007812,
                -125.02589416503906
            ],
            "type" : "VEC3"
        },
        {
            "bufferView" : 6,
            "componentType" : 5126,
            "count" : 190,
            "type" : "VEC3"
        },
        {
            "bufferView" : 7,
            "componentType" : 5126,
            "count" : 190,
            "type" : "VEC2"
        },
        {
            "bufferView" : 8,
            "componentType" : 5123,
            "count" : 462,
            "type" : "SCALAR"
        },
        {
            "bufferView" : 9,
            "componentType" : 5126,
            "count" : 155,
            "max" : [
                124.611572265625,
                18.9300537109375,
                115.93508911132812
            ],
            "min" : [
                -124.611572265625,
                -11.470733642578125,
                -140.19381713867188
            ],
            "type" : "VEC3"
        },
        {
            "bufferView" : 10,
            "componentType" : 5126,
            "count" : 155,
            "type" : "VEC3"
        },
        {
            "bufferView" : 11,
            "componentType" : 5126,
            "count" : 155,
            "type" : "VEC2"
        },
        {
            "bufferView" : 12,
            "componentType" : 5123,
            "count" : 420,
            "type" : "SCALAR"
        },
        {
            "bufferView" : 13,
            "componentType" : 5126,
            "count" : 4,
            "max" : [
                52.037109375,
                0,
                13.670753479003906
            ],
            "min" : [
                -52.037109375,
                0,
                -13.670745849609375
            ],
            "type" : "VEC3"
        },
        {
            "bufferView" : 14,
            "componentType" : 5126,
            "count" : 4,
            "type" : "VEC3"
        },
        {
            "bufferView" : 15,
            "componentType" : 5126,
            "count" : 4,
            "type" : "VEC2"
        },
        {
            "bufferView" : 16,
            "componentType" : 5123,
            "count" : 6,
            "type" : "SCALAR"
        },
        {
            "bufferView" : 17,
            "componentType" : 5126,
            "count" : 4,
            "max" : [
                52.037109375,
                0,
                13.670745849609375
            ],
            "min" : [
                -52.037109375,
                0,
                -13.670745849609375
            ],
            "type" : "VEC3"
        },
        {
            "bufferView" : 18,
            "componentType" : 5126,
            "count" : 4,
            "type" : "VEC3"
        },
        {
            "bufferView" : 19,
            "componentType" : 5126,
            "count" : 4,
            "type" : "VEC2"
        },
        {
            "bufferView" : 20,
            "componentType" : 5126,
            "count" : 188,
            "max" : [
                49.66485595703125,
                10.488601684570312,
                123.45707702636719
            ],
            "min" : [
                -14.52947998046875,
                -173.75100708007812,
                -125.02590942382812
            ],
            "type" : "VEC3"
        },
        {
            "bufferView" : 21,
            "componentType" : 5126,
            "count" : 188,
            "type" : "VEC3"
        },
        {
            "bufferView" : 22,
            "componentType" : 5126,
            "count" : 188,
            "type" : "VEC2"
        },
        {
            "bufferView" : 23,
            "componentType" : 5123,
            "count" : 462,
            "type" : "SCALAR"
        },
        {
            "bufferView" : 24,
            "componentType" : 5126,
            "count" : 3554,
            "max" : [
                179.015869140625,
                388.89044189453125,
                200.4707489013672
            ],
            "min" : [
                -179.016357421875,
                -316.5335693359375,
                -244.97523498535156
            ],
            "type" : "VEC3"
        },
        {
            "bufferView" : 25,
            "componentType" : 5126,
            "count" : 3554,
            "type" : "VEC3"
        },
        {
            "bufferView" : 26,
            "componentType" : 5126,
            "count" : 3554,
            "type" : "VEC2"
        },
        {
            "bufferView" : 27,
            "componentType" : 5123,
            "count" : 8400,
            "type" : "SCALAR"
        },
        {
            "bufferView" : 28,
            "componentType" : 5126,
            "count" : 360,
            "max" : [
                143.295654296875,
                357.96844482421875,
                58.74534606933594
            ],
            "min" : [
                -143.296142578125,
                -314.9024658203125,
                -10.322952270507812
            ],
            "type" : "VEC3"
        },
        {
            "bufferView" : 29,
            "componentType" : 5126,
            "count" : 360,
            "type" : "VEC3"
        },
        {
            "bufferView" : 30,
            "componentType" : 5126,
            "count" : 360,
            "type" : "VEC2"
        },
        {
            "bufferView" : 31,
            "componentType" : 5123,
            "count" : 360,
            "type" : "SCALAR"
        }
    ],
    "bufferViews" : [
        {
            "buffer" : 0,
            "byteLength" : 1476,
            "byteOffset" : 0
        },
        {
            "buffer" : 0,
            "byteLength" : 1476,
            "byteOffset" : 1476
        },
        {
            "buffer" : 0,
            "byteLength" : 984,
            "byteOffset" : 2952
        },
        {
            "buffer" : 0,
            "byteLength" : 612,
            "byteOffset" : 3936
        },
        {
            "buffer" : 0,
            "byteLength" : 61277,
            "byteOffset" : 4548
        },
        {
            "buffer" : 0,
            "byteLength" : 2280,
            "byteOffset" : 65828
        },
        {
            "buffer" : 0,
            "byteLength" : 2280,
            "byteOffset" : 68108
        },
        {
            "buffer" : 0,
            "byteLength" : 1520,
            "byteOffset" : 70388
        },
        {
            "buffer" : 0,
            "byteLength" : 924,
            "byteOffset" : 71908
        },
        {
            "buffer" : 0,
            "byteLength" : 1860,
            "byteOffset" : 72832
        },
        {
            "buffer" : 0,
            "byteLength" : 1860,
            "byteOffset" : 74692
        },
        {
            "buffer" : 0,
            "byteLength" : 1240,
            "byteOffset" : 76552
        },
        {
            "buffer" : 0,
            "byteLength" : 840,
            "byteOffset" : 77792
        },
        {
            "buffer" : 0,
            "byteLength" : 48,
            "byteOffset" : 78632
        },
        {
            "buffer" : 0,
            "byteLength" : 48,
            "byteOffset" : 78680
        },
        {
            "buffer" : 0,
            "byteLength" : 32,
            "byteOffset" : 78728
        },
        {
            "buffer" : 0,
            "byteLength" : 12,
            "byteOffset" : 78760
        },
        {
            "buffer" : 0,
            "byteLength" : 48,
            "byteOffset" : 78772
        },
        {
            "buffer" : 0,
            "byteLength" : 48,
            "byteOffset" : 78820
        },
        {
            "buffer" : 0,
            "byteLength" : 32,
            "byteOffset" : 78868
        },
        {
            "buffer" : 0,
            "byteLength" : 2256,
            "byteOffset" : 78900
        },
        {
            "buffer" : 0,
            "byteLength" : 2256,
            "byteOffset" : 81156
        },
        {
            "buffer" : 0,
            "byteLength" : 1504,
            "byteOffset" : 83412
        },
        {
            "buffer" : 0,
            "byteLength" : 924,
            "byteOffset" : 84916
        },
        {
            "buffer" : 0,
            "byteLength" : 42648,
            "byteOffset" : 85840
        },
        {
            "buffer" : 0,
            "byteLength" : 42648,
            "byteOffset" : 128488
        },
        {
            "buffer" : 0,
            "byteLength" : 28432,
            "byteOffset" : 171136
        },
        {
            "buffer" : 0,
            "byteLength" : 16800,
            "byteOffset" : 199568
        },
        {
            "buffer" : 0,
            "byteLength" : 4320,
            "byteOffset" : 216368
        },
        {
            "buffer" : 0,
            "byteLength" : 4320,
            "byteOffset" : 220688
        },
        {
            "buffer" : 0,
            "byteLength" : 2880,
            "byteOffset" : 225008
        },
        {
            "buffer" : 0,
            "byteLength" : 720,
            "byteOffset" : 227888
        }
    ],
    "samplers" : [
        {
            "magFilter" : 9729,
            "minFilter" : 9987
        }
    ],
    "buffers" : [
        {
            "byteLength" : 228608,
            "uri" : "data:application/octet-stream;base64,"
        }
    ]
}
