{
    "asset" : {
        "generator" : "Khronos glTF Blender I/O v1.7.33",
        "version" : "2.0"
    },
    "scene" : 0,
    "scenes" : [
        {
            "name" : "Scene",
            "nodes" : [
                8
            ]
        }
    ],
    "nodes" : [
        {
            "mesh" : 0,
            "name" : "hood",
            "translation" : [
                0.0009617388714104891,
                456.3907165527344,
                -45.39615249633789
            ]
        },
        {
            "mesh" : 1,
            "name" : "lDoor",
            "translation" : [
                -189.0845947265625,
                317.7279968261719,
                -3.377103805541992
            ]
        },
        {
            "mesh" : 2,
            "name" : "Object125",
            "translation" : [
                0.0009617388714104891,
                445.3138122558594,
                165.05419921875
            ]
        },
        {
            "mesh" : 3,
            "name" : "Object127",
            "translation" : [
                0.0012823184952139854,
                -506.8465881347656,
                -46.951263427734375
            ]
        },
        {
            "mesh" : 4,
            "name" : "Object171",
            "translation" : [
                0.0009617388714104891,
                -299.91375732421875,
                165.05421447753906
            ]
        },
        {
            "mesh" : 5,
            "name" : "Plane009",
            "translation" : [
                -0.805296003818512,
                637.2233276367188,
                135.82583618164062
            ]
        },
        {
            "mesh" : 6,
            "name" : "Plane010",
            "translation" : [
                -0.805296003818512,
                -523.38623046875,
                49.6162109375
            ]
        },
        {
            "mesh" : 7,
            "name" : "rDoor",
            "translation" : [
                184.88467407226562,
                317.7279968261719,
                -3.377103805541992
            ]
        },
        {
            "children" : [
                0,
                1,
                2,
                3,
                4,
                5,
                6,
                7
            ],
            "mesh" : 8,
            "name" : "s_0061",
            "rotation" : [
                0.7071068286895752,
                0,
                0,
                0.7071067094802856
            ],
            "scale" : [
                0.023798750713467598,
                0.023798750713467598,
                0.023798750713467598
            ],
            "translation" : [
                -2.288818359375e-05,
                5.819630146026611,
                -1.1615290641784668
            ]
        }
    ],
    "materials" : [
        {
            "doubleSided" : true,
            "name" : "01___Default",
            "pbrMetallicRoughness" : {
                "baseColorTexture" : {
                    "index" : 0
                },
                "metallicFactor" : 0,
                "roughnessFactor" : 0.16818180680274963
            }
        },
        {
            "doubleSided" : true,
            "emissiveFactor" : [
                1,
                1,
                1
            ],
            "emissiveTexture" : {
                "index" : 1
            },
            "name" : "Lights",
            "pbrMetallicRoughness" : {
                "baseColorTexture" : {
                    "index" : 2
                },
                "metallicFactor" : 0,
                "roughnessFactor" : 0.013636350631713867
            }
        }
    ],
    "meshes" : [
        {
            "name" : "Object046",
            "primitives" : [
                {
                    "attributes" : {
                        "POSITION" : 0,
                        "NORMAL" : 1,
                        "TEXCOORD_0" : 2
                    },
                    "indices" : 3,
                    "material" : 0
                }
            ]
        },
        {
            "name" : "Object120",
            "primitives" : [
                {
                    "attributes" : {
                        "POSITION" : 4,
                        "NORMAL" : 5,
                        "TEXCOORD_0" : 6
                    },
                    "indices" : 7,
                    "material" : 0
                }
            ]
        },
        {
            "name" : "Object125",
            "primitives" : [
                {
                    "attributes" : {
                        "POSITION" : 8,
                        "NORMAL" : 9,
                        "TEXCOORD_0" : 10
                    },
                    "indices" : 11,
                    "material" : 0
                }
            ]
        },
        {
            "name" : "Object127",
            "primitives" : [
                {
                    "attributes" : {
                        "POSITION" : 12,
                        "NORMAL" : 13,
                        "TEXCOORD_0" : 14
                    },
                    "indices" : 15,
                    "material" : 0
                }
            ]
        },
        {
            "name" : "Object171",
            "primitives" : [
                {
                    "attributes" : {
                        "POSITION" : 16,
                        "NORMAL" : 17,
                        "TEXCOORD_0" : 18
                    },
                    "indices" : 19,
                    "material" : 0
                }
            ]
        },
        {
            "name" : "Plane009",
            "primitives" : [
                {
                    "attributes" : {
                        "POSITION" : 20,
                        "NORMAL" : 21,
                        "TEXCOORD_0" : 22
                    },
                    "indices" : 23,
                    "material" : 1
                }
            ]
        },
        {
            "name" : "Plane010",
            "primitives" : [
                {
                    "attributes" : {
                        "POSITION" : 24,
                        "NORMAL" : 25,
                        "TEXCOORD_0" : 26
                    },
                    "indices" : 23,
                    "material" : 1
                }
            ]
        },
        {
            "name" : "Object269",
            "primitives" : [
                {
                    "attributes" : {
                        "POSITION" : 27,
                        "NORMAL" : 28,
                        "TEXCOORD_0" : 29
                    },
                    "indices" : 30,
                    "material" : 0
                }
            ]
        },
        {
            "name" : "s_0061",
            "primitives" : [
                {
                    "attributes" : {
                        "POSITION" : 31,
                        "NORMAL" : 32,
                        "TEXCOORD_0" : 33
                    },
                    "indices" : 34,
                    "material" : 0
                },
                {
                    "attributes" : {
                        "POSITION" : 35,
                        "NORMAL" : 36,
                        "TEXCOORD_0" : 37
                    },
                    "indices" : 38,
                    "material" : 1
                }
            ]
        }
    ],
    "textures" : [
        {
            "sampler" : 0,
            "source" : 0
        },
        {
            "sampler" : 0,
            "source" : 0
        },
        {
            "sampler" : 0,
            "source" : 0
        }
    ],
    "images" : [
        {
            "bufferView" : 4,
            "mimeType" : "image/jpeg",
            "name" : "ColorAtlas"
        }
    ],
    "accessors" : [
        {
            "bufferView" : 0,
            "componentType" : 5126,
            "count" : 50,
            "max" : [
                164.21778869628906,
                160.73263549804688,
                92.50511169433594
            ],
            "min" : [
                -164.21775817871094,
                -29.271255493164062,
                -14.42919921875
            ],
            "type" : "VEC3"
        },
        {
            "bufferView" : 1,
            "componentType" : 5126,
            "count" : 50,
            "type" : "VEC3"
        },
        {
            "bufferView" : 2,
            "componentType" : 5126,
            "count" : 50,
            "type" : "VEC2"
        },
        {
            "bufferView" : 3,
            "componentType" : 5123,
            "count" : 108,
            "type" : "SCALAR"
        },
        {
            "bufferView" : 5,
            "componentType" : 5126,
            "count" : 287,
            "max" : [
                34.73292541503906,
                11.173858642578125,
                155.82676696777344
            ],
            "min" : [
                -54.97972106933594,
                -228.66824340820312,
                -175.76461791992188
            ],
            "type" : "VEC3"
        },
        {
            "bufferView" : 6,
            "componentType" : 5126,
            "count" : 287,
            "type" : "VEC3"
        },
        {
            "bufferView" : 7,
            "componentType" : 5126,
            "count" : 287,
            "type" : "VEC2"
        },
        {
            "bufferView" : 8,
            "componentType" : 5123,
            "count" : 759,
            "type" : "SCALAR"
        },
        {
            "bufferView" : 9,
            "componentType" : 5126,
            "count" : 524,
            "max" : [
                200.039306640625,
                80.92695617675781,
                80.92716217041016
            ],
            "min" : [
                -200.039306640625,
                -80.92703247070312,
                -80.92633056640625
            ],
            "type" : "VEC3"
        },
        {
            "bufferView" : 10,
            "componentType" : 5126,
            "count" : 524,
            "type" : "VEC3"
        },
        {
            "bufferView" : 11,
            "componentType" : 5126,
            "count" : 524,
            "type" : "VEC2"
        },
        {
            "bufferView" : 12,
            "componentType" : 5123,
            "count" : 1536,
            "type" : "SCALAR"
        },
        {
            "bufferView" : 13,
            "componentType" : 5126,
            "count" : 40,
            "max" : [
                161.08447265625,
                22.21624755859375,
                169.5399169921875
            ],
            "min" : [
                -161.0849609375,
                -13.3778076171875,
                -126.87408447265625
            ],
            "type" : "VEC3"
        },
        {
            "bufferView" : 14,
            "componentType" : 5126,
            "count" : 40,
            "type" : "VEC3"
        },
        {
            "bufferView" : 15,
            "componentType" : 5126,
            "count" : 40,
            "type" : "VEC2"
        },
        {
            "bufferView" : 16,
            "componentType" : 5123,
            "count" : 168,
            "type" : "SCALAR"
        },
        {
            "bufferView" : 17,
            "componentType" : 5126,
            "count" : 523,
            "max" : [
                200.039306640625,
                80.92694091796875,
                80.92716217041016
            ],
            "min" : [
                -200.039306640625,
                -80.92703247070312,
                -80.92633056640625
            ],
            "type" : "VEC3"
        },
        {
            "bufferView" : 18,
            "componentType" : 5126,
            "count" : 523,
            "type" : "VEC3"
        },
        {
            "bufferView" : 19,
            "componentType" : 5126,
            "count" : 523,
            "type" : "VEC2"
        },
        {
            "bufferView" : 20,
            "componentType" : 5123,
            "count" : 1536,
            "type" : "SCALAR"
        },
        {
            "bufferView" : 21,
            "componentType" : 5126,
            "count" : 4,
            "max" : [
                52.037109375,
                0,
                13.670745849609375
            ],
            "min" : [
                -52.037109375,
                0,
                -13.670753479003906
            ],
            "type" : "VEC3"
        },
        {
            "bufferView" : 22,
            "componentType" : 5126,
            "count" : 4,
            "type" : "VEC3"
        },
        {
            "bufferView" : 23,
            "componentType" : 5126,
            "count" : 4,
            "type" : "VEC2"
        },
        {
            "bufferView" : 24,
            "componentType" : 5123,
            "count" : 6,
            "type" : "SCALAR"
        },
        {
            "bufferView" : 25,
            "componentType" : 5126,
            "count" : 4,
            "max" : [
                52.037109375,
                0,
                13.670761108398438
            ],
            "min" : [
                -52.037109375,
                0,
                -13.670745849609375
            ],
            "type" : "VEC3"
        },
        {
            "bufferView" : 26,
            "componentType" : 5126,
            "count" : 4,
            "type" : "VEC3"
        },
        {
            "bufferView" : 27,
            "componentType" : 5126,
            "count" : 4,
            "type" : "VEC2"
        },
        {
            "bufferView" : 28,
            "componentType" : 5126,
            "count" : 288,
            "max" : [
                59.181304931640625,
                11.173858642578125,
                155.8267822265625
            ],
            "min" : [
                -30.531341552734375,
                -228.66824340820312,
                -175.7646026611328
            ],
            "type" : "VEC3"
        },
        {
            "bufferView" : 29,
            "componentType" : 5126,
            "count" : 288,
            "type" : "VEC3"
        },
        {
            "bufferView" : 30,
            "componentType" : 5126,
            "count" : 288,
            "type" : "VEC2"
        },
        {
            "bufferView" : 31,
            "componentType" : 5123,
            "count" : 759,
            "type" : "SCALAR"
        },
        {
            "bufferView" : 32,
            "componentType" : 5126,
            "count" : 1942,
            "max" : [
                206.291259765625,
                635.6318359375,
                180.1231689453125
            ],
            "min" : [
                -206.289306640625,
                -538.0192260742188,
                -205.30931091308594
            ],
            "type" : "VEC3"
        },
        {
            "bufferView" : 33,
            "componentType" : 5126,
            "count" : 1942,
            "type" : "VEC3"
        },
        {
            "bufferView" : 34,
            "componentType" : 5126,
            "count" : 1942,
            "type" : "VEC2"
        },
        {
            "bufferView" : 35,
            "componentType" : 5123,
            "count" : 4878,
            "type" : "SCALAR"
        },
        {
            "bufferView" : 36,
            "componentType" : 5126,
            "count" : 75,
            "max" : [
                193.159912109375,
                613.7724609375,
                82.54397583007812
            ],
            "min" : [
                -193.157958984375,
                -512.7378540039062,
                -73.67582702636719
            ],
            "type" : "VEC3"
        },
        {
            "bufferView" : 37,
            "componentType" : 5126,
            "count" : 75,
            "type" : "VEC3"
        },
        {
            "bufferView" : 38,
            "componentType" : 5126,
            "count" : 75,
            "type" : "VEC2"
        },
        {
            "bufferView" : 39,
            "componentType" : 5123,
            "count" : 234,
            "type" : "SCALAR"
        }
    ],
    "bufferViews" : [
        {
            "buffer" : 0,
            "byteLength" : 600,
            "byteOffset" : 0
        },
        {
            "buffer" : 0,
            "byteLength" : 600,
            "byteOffset" : 600
        },
        {
            "buffer" : 0,
            "byteLength" : 400,
            "byteOffset" : 1200
        },
        {
            "buffer" : 0,
            "byteLength" : 216,
            "byteOffset" : 1600
        },
        {
            "buffer" : 0,
            "byteLength" : 61277,
            "byteOffset" : 1816
        },
        {
            "buffer" : 0,
            "byteLength" : 3444,
            "byteOffset" : 63096
        },
        {
            "buffer" : 0,
            "byteLength" : 3444,
            "byteOffset" : 66540
        },
        {
            "buffer" : 0,
            "byteLength" : 2296,
            "byteOffset" : 69984
        },
        {
            "buffer" : 0,
            "byteLength" : 1518,
            "byteOffset" : 72280
        },
        {
            "buffer" : 0,
            "byteLength" : 6288,
            "byteOffset" : 73800
        },
        {
            "buffer" : 0,
            "byteLength" : 6288,
            "byteOffset" : 80088
        },
        {
            "buffer" : 0,
            "byteLength" : 4192,
            "byteOffset" : 86376
        },
        {
            "buffer" : 0,
            "byteLength" : 3072,
            "byteOffset" : 90568
        },
        {
            "buffer" : 0,
            "byteLength" : 480,
            "byteOffset" : 93640
        },
        {
            "buffer" : 0,
            "byteLength" : 480,
            "byteOffset" : 94120
        },
        {
            "buffer" : 0,
            "byteLength" : 320,
            "byteOffset" : 94600
        },
        {
            "buffer" : 0,
            "byteLength" : 336,
            "byteOffset" : 94920
        },
        {
            "buffer" : 0,
            "byteLength" : 6276,
            "byteOffset" : 95256
        },
        {
            "buffer" : 0,
            "byteLength" : 6276,
            "byteOffset" : 101532
        },
        {
            "buffer" : 0,
            "byteLength" : 4184,
            "byteOffset" : 107808
        },
        {
            "buffer" : 0,
            "byteLength" : 3072,
            "byteOffset" : 111992
        },
        {
            "buffer" : 0,
            "byteLength" : 48,
            "byteOffset" : 115064
        },
        {
            "buffer" : 0,
            "byteLength" : 48,
            "byteOffset" : 115112
        },
        {
            "buffer" : 0,
            "byteLength" : 32,
            "byteOffset" : 115160
        },
        {
            "buffer" : 0,
            "byteLength" : 12,
            "byteOffset" : 115192
        },
        {
            "buffer" : 0,
            "byteLength" : 48,
            "byteOffset" : 115204
        },
        {
            "buffer" : 0,
            "byteLength" : 48,
            "byteOffset" : 115252
        },
        {
            "buffer" : 0,
            "byteLength" : 32,
            "byteOffset" : 115300
        },
        {
            "buffer" : 0,
            "byteLength" : 3456,
            "byteOffset" : 115332
        },
        {
            "buffer" : 0,
            "byteLength" : 3456,
            "byteOffset" : 118788
        },
        {
            "buffer" : 0,
            "byteLength" : 2304,
            "byteOffset" : 122244
        },
        {
            "buffer" : 0,
            "byteLength" : 1518,
            "byteOffset" : 124548
        },
        {
            "buffer" : 0,
            "byteLength" : 23304,
            "byteOffset" : 126068
        },
        {
            "buffer" : 0,
            "byteLength" : 23304,
            "byteOffset" : 149372
        },
        {
            "buffer" : 0,
            "byteLength" : 15536,
            "byteOffset" : 172676
        },
        {
            "buffer" : 0,
            "byteLength" : 9756,
            "byteOffset" : 188212
        },
        {
            "buffer" : 0,
            "byteLength" : 900,
            "byteOffset" : 197968
        },
        {
            "buffer" : 0,
            "byteLength" : 900,
            "byteOffset" : 198868
        },
        {
            "buffer" : 0,
            "byteLength" : 600,
            "byteOffset" : 199768
        },
        {
            "buffer" : 0,
            "byteLength" : 468,
            "byteOffset" : 200368
        }
    ],
    "samplers" : [
        {
            "magFilter" : 9729,
            "minFilter" : 9987
        }
    ],
    "buffers" : [
        {
            "byteLength" : 200836,
            "uri" : "data:application/octet-stream;base64,"
        }
    ]
}
