{
    "asset" : {
        "generator" : "Khronos glTF Blender I/O v1.7.33",
        "version" : "2.0"
    },
    "scene" : 0,
    "scenes" : [
        {
            "name" : "Scene",
            "nodes" : [
                8
            ]
        }
    ],
    "nodes" : [
        {
            "mesh" : 0,
            "name" : "hood",
            "translation" : [
                0.0002344582899240777,
                313.6478576660156,
                -82.10302734375
            ]
        },
        {
            "mesh" : 1,
            "name" : "lDoor",
            "translation" : [
                -142.86441040039062,
                259.02313232421875,
                -56.891639709472656
            ]
        },
        {
            "mesh" : 2,
            "name" : "Object155",
            "translation" : [
                0.0002344582899240777,
                368.00732421875,
                81.38118743896484
            ]
        },
        {
            "mesh" : 3,
            "name" : "Object161",
            "translation" : [
                0.0002344582899240777,
                -493.83404541015625,
                -39.630226135253906
            ]
        },
        {
            "mesh" : 4,
            "name" : "Object174",
            "translation" : [
                0.0002344582899240777,
                -257.33953857421875,
                81.38118743896484
            ]
        },
        {
            "mesh" : 5,
            "name" : "Plane029",
            "translation" : [
                1.2780648469924927,
                537.060791015625,
                45.942413330078125
            ]
        },
        {
            "mesh" : 6,
            "name" : "Plane030",
            "translation" : [
                1.2780648469924927,
                -495.0447692871094,
                37.65657043457031
            ]
        },
        {
            "mesh" : 7,
            "name" : "rDoor",
            "translation" : [
                142.8648681640625,
                259.02313232421875,
                -56.891639709472656
            ]
        },
        {
            "children" : [
                0,
                1,
                2,
                3,
                4,
                5,
                6,
                7
            ],
            "mesh" : 8,
            "name" : "s_107",
            "rotation" : [
                0.7071068286895752,
                0,
                0,
                0.7071067094802856
            ],
            "scale" : [
                0.023798750713467598,
                0.023798750713467598,
                0.023798750713467598
            ],
            "translation" : [
                -5.579814569500741e-06,
                3.6460509300231934,
                -0.46442756056785583
            ]
        }
    ],
    "materials" : [
        {
            "doubleSided" : true,
            "name" : "01___Default",
            "pbrMetallicRoughness" : {
                "baseColorTexture" : {
                    "index" : 0
                },
                "metallicFactor" : 0,
                "roughnessFactor" : 0.16818180680274963
            }
        },
        {
            "doubleSided" : true,
            "emissiveFactor" : [
                1,
                1,
                1
            ],
            "emissiveTexture" : {
                "index" : 1
            },
            "name" : "Lights",
            "pbrMetallicRoughness" : {
                "baseColorTexture" : {
                    "index" : 2
                },
                "metallicFactor" : 0,
                "roughnessFactor" : 0.013636350631713867
            }
        }
    ],
    "meshes" : [
        {
            "name" : "Object156",
            "primitives" : [
                {
                    "attributes" : {
                        "POSITION" : 0,
                        "NORMAL" : 1,
                        "TEXCOORD_0" : 2
                    },
                    "indices" : 3,
                    "material" : 0
                }
            ]
        },
        {
            "name" : "Object075",
            "primitives" : [
                {
                    "attributes" : {
                        "POSITION" : 4,
                        "NORMAL" : 5,
                        "TEXCOORD_0" : 6
                    },
                    "indices" : 7,
                    "material" : 0
                }
            ]
        },
        {
            "name" : "Object155",
            "primitives" : [
                {
                    "attributes" : {
                        "POSITION" : 8,
                        "NORMAL" : 9,
                        "TEXCOORD_0" : 10
                    },
                    "indices" : 11,
                    "material" : 0
                }
            ]
        },
        {
            "name" : "Object161",
            "primitives" : [
                {
                    "attributes" : {
                        "POSITION" : 12,
                        "NORMAL" : 13,
                        "TEXCOORD_0" : 14
                    },
                    "indices" : 15,
                    "material" : 0
                }
            ]
        },
        {
            "name" : "Object174",
            "primitives" : [
                {
                    "attributes" : {
                        "POSITION" : 16,
                        "NORMAL" : 17,
                        "TEXCOORD_0" : 18
                    },
                    "indices" : 19,
                    "material" : 0
                }
            ]
        },
        {
            "name" : "Plane029",
            "primitives" : [
                {
                    "attributes" : {
                        "POSITION" : 20,
                        "NORMAL" : 21,
                        "TEXCOORD_0" : 22
                    },
                    "indices" : 23,
                    "material" : 1
                }
            ]
        },
        {
            "name" : "Plane030",
            "primitives" : [
                {
                    "attributes" : {
                        "POSITION" : 24,
                        "NORMAL" : 25,
                        "TEXCOORD_0" : 26
                    },
                    "indices" : 23,
                    "material" : 0
                }
            ]
        },
        {
            "name" : "Object285",
            "primitives" : [
                {
                    "attributes" : {
                        "POSITION" : 27,
                        "NORMAL" : 28,
                        "TEXCOORD_0" : 29
                    },
                    "indices" : 30,
                    "material" : 0
                }
            ]
        },
        {
            "name" : "s_107",
            "primitives" : [
                {
                    "attributes" : {
                        "POSITION" : 31,
                        "NORMAL" : 32,
                        "TEXCOORD_0" : 33
                    },
                    "indices" : 34,
                    "material" : 0
                },
                {
                    "attributes" : {
                        "POSITION" : 35,
                        "NORMAL" : 36,
                        "TEXCOORD_0" : 37
                    },
                    "indices" : 38,
                    "material" : 1
                }
            ]
        }
    ],
    "textures" : [
        {
            "sampler" : 0,
            "source" : 0
        },
        {
            "sampler" : 0,
            "source" : 0
        },
        {
            "sampler" : 0,
            "source" : 0
        }
    ],
    "images" : [
        {
            "bufferView" : 4,
            "mimeType" : "image/jpeg",
            "name" : "ColorAtlas"
        }
    ],
    "accessors" : [
        {
            "bufferView" : 0,
            "componentType" : 5126,
            "count" : 68,
            "max" : [
                136.724609375,
                206.22610473632812,
                51.691864013671875
            ],
            "min" : [
                -136.72412109375,
                -32.78138732910156,
                -5.886749267578125
            ],
            "type" : "VEC3"
        },
        {
            "bufferView" : 1,
            "componentType" : 5126,
            "count" : 68,
            "type" : "VEC3"
        },
        {
            "bufferView" : 2,
            "componentType" : 5126,
            "count" : 68,
            "type" : "VEC2"
        },
        {
            "bufferView" : 3,
            "componentType" : 5123,
            "count" : 150,
            "type" : "SCALAR"
        },
        {
            "bufferView" : 5,
            "componentType" : 5126,
            "count" : 271,
            "max" : [
                36.39009094238281,
                7.1660003662109375,
                114.05384826660156
            ],
            "min" : [
                -57.93315124511719,
                -233.2733917236328,
                -132.7229461669922
            ],
            "type" : "VEC3"
        },
        {
            "bufferView" : 6,
            "componentType" : 5126,
            "count" : 271,
            "type" : "VEC3"
        },
        {
            "bufferView" : 7,
            "componentType" : 5126,
            "count" : 271,
            "type" : "VEC2"
        },
        {
            "bufferView" : 8,
            "componentType" : 5123,
            "count" : 711,
            "type" : "SCALAR"
        },
        {
            "bufferView" : 9,
            "componentType" : 5126,
            "count" : 521,
            "max" : [
                162.62646484375,
                73.22413635253906,
                73.22412872314453
            ],
            "min" : [
                -162.6259765625,
                -73.22427368164062,
                -73.22367095947266
            ],
            "type" : "VEC3"
        },
        {
            "bufferView" : 10,
            "componentType" : 5126,
            "count" : 521,
            "type" : "VEC3"
        },
        {
            "bufferView" : 11,
            "componentType" : 5126,
            "count" : 521,
            "type" : "VEC2"
        },
        {
            "bufferView" : 12,
            "componentType" : 5123,
            "count" : 1536,
            "type" : "SCALAR"
        },
        {
            "bufferView" : 13,
            "componentType" : 5126,
            "count" : 57,
            "max" : [
                137.0615234375,
                12.3837890625,
                54.8487548828125
            ],
            "min" : [
                -137.06103515625,
                -9.23388671875,
                -47.61094665527344
            ],
            "type" : "VEC3"
        },
        {
            "bufferView" : 14,
            "componentType" : 5126,
            "count" : 57,
            "type" : "VEC3"
        },
        {
            "bufferView" : 15,
            "componentType" : 5126,
            "count" : 57,
            "type" : "VEC2"
        },
        {
            "bufferView" : 16,
            "componentType" : 5123,
            "count" : 132,
            "type" : "SCALAR"
        },
        {
            "bufferView" : 17,
            "componentType" : 5126,
            "count" : 525,
            "max" : [
                162.62646484375,
                73.22415161132812,
                73.22412872314453
            ],
            "min" : [
                -162.6259765625,
                -73.2242431640625,
                -73.22367095947266
            ],
            "type" : "VEC3"
        },
        {
            "bufferView" : 18,
            "componentType" : 5126,
            "count" : 525,
            "type" : "VEC3"
        },
        {
            "bufferView" : 19,
            "componentType" : 5126,
            "count" : 525,
            "type" : "VEC2"
        },
        {
            "bufferView" : 20,
            "componentType" : 5123,
            "count" : 1536,
            "type" : "SCALAR"
        },
        {
            "bufferView" : 21,
            "componentType" : 5126,
            "count" : 4,
            "max" : [
                52.037109375,
                0,
                13.670700073242188
            ],
            "min" : [
                -52.037109375,
                0,
                -13.670700073242188
            ],
            "type" : "VEC3"
        },
        {
            "bufferView" : 22,
            "componentType" : 5126,
            "count" : 4,
            "type" : "VEC3"
        },
        {
            "bufferView" : 23,
            "componentType" : 5126,
            "count" : 4,
            "type" : "VEC2"
        },
        {
            "bufferView" : 24,
            "componentType" : 5123,
            "count" : 6,
            "type" : "SCALAR"
        },
        {
            "bufferView" : 25,
            "componentType" : 5126,
            "count" : 4,
            "max" : [
                52.037109375,
                0,
                13.670745849609375
            ],
            "min" : [
                -52.037109375,
                0,
                -13.670761108398438
            ],
            "type" : "VEC3"
        },
        {
            "bufferView" : 26,
            "componentType" : 5126,
            "count" : 4,
            "type" : "VEC3"
        },
        {
            "bufferView" : 27,
            "componentType" : 5126,
            "count" : 4,
            "type" : "VEC2"
        },
        {
            "bufferView" : 28,
            "componentType" : 5126,
            "count" : 272,
            "max" : [
                57.93315124511719,
                7.1660003662109375,
                114.05384826660156
            ],
            "min" : [
                -36.39009094238281,
                -233.2733917236328,
                -132.7229461669922
            ],
            "type" : "VEC3"
        },
        {
            "bufferView" : 29,
            "componentType" : 5126,
            "count" : 272,
            "type" : "VEC3"
        },
        {
            "bufferView" : 30,
            "componentType" : 5126,
            "count" : 272,
            "type" : "VEC2"
        },
        {
            "bufferView" : 31,
            "componentType" : 5123,
            "count" : 711,
            "type" : "SCALAR"
        },
        {
            "bufferView" : 32,
            "componentType" : 5126,
            "count" : 1700,
            "max" : [
                166.63792419433594,
                542.8514404296875,
                76.38274383544922
            ],
            "min" : [
                -166.63795471191406,
                -503.82183837890625,
                -200.4208526611328
            ],
            "type" : "VEC3"
        },
        {
            "bufferView" : 33,
            "componentType" : 5126,
            "count" : 1700,
            "type" : "VEC3"
        },
        {
            "bufferView" : 34,
            "componentType" : 5126,
            "count" : 1700,
            "type" : "VEC2"
        },
        {
            "bufferView" : 35,
            "componentType" : 5123,
            "count" : 4176,
            "type" : "SCALAR"
        },
        {
            "bufferView" : 36,
            "componentType" : 5126,
            "count" : 34,
            "max" : [
                156.81028747558594,
                520.7345581054688,
                -3.191253662109375
            ],
            "min" : [
                -156.81031799316406,
                472.68603515625,
                -32.76695251464844
            ],
            "type" : "VEC3"
        },
        {
            "bufferView" : 37,
            "componentType" : 5126,
            "count" : 34,
            "type" : "VEC3"
        },
        {
            "bufferView" : 38,
            "componentType" : 5126,
            "count" : 34,
            "type" : "VEC2"
        },
        {
            "bufferView" : 39,
            "componentType" : 5123,
            "count" : 90,
            "type" : "SCALAR"
        }
    ],
    "bufferViews" : [
        {
            "buffer" : 0,
            "byteLength" : 816,
            "byteOffset" : 0
        },
        {
            "buffer" : 0,
            "byteLength" : 816,
            "byteOffset" : 816
        },
        {
            "buffer" : 0,
            "byteLength" : 544,
            "byteOffset" : 1632
        },
        {
            "buffer" : 0,
            "byteLength" : 300,
            "byteOffset" : 2176
        },
        {
            "buffer" : 0,
            "byteLength" : 61277,
            "byteOffset" : 2476
        },
        {
            "buffer" : 0,
            "byteLength" : 3252,
            "byteOffset" : 63756
        },
        {
            "buffer" : 0,
            "byteLength" : 3252,
            "byteOffset" : 67008
        },
        {
            "buffer" : 0,
            "byteLength" : 2168,
            "byteOffset" : 70260
        },
        {
            "buffer" : 0,
            "byteLength" : 1422,
            "byteOffset" : 72428
        },
        {
            "buffer" : 0,
            "byteLength" : 6252,
            "byteOffset" : 73852
        },
        {
            "buffer" : 0,
            "byteLength" : 6252,
            "byteOffset" : 80104
        },
        {
            "buffer" : 0,
            "byteLength" : 4168,
            "byteOffset" : 86356
        },
        {
            "buffer" : 0,
            "byteLength" : 3072,
            "byteOffset" : 90524
        },
        {
            "buffer" : 0,
            "byteLength" : 684,
            "byteOffset" : 93596
        },
        {
            "buffer" : 0,
            "byteLength" : 684,
            "byteOffset" : 94280
        },
        {
            "buffer" : 0,
            "byteLength" : 456,
            "byteOffset" : 94964
        },
        {
            "buffer" : 0,
            "byteLength" : 264,
            "byteOffset" : 95420
        },
        {
            "buffer" : 0,
            "byteLength" : 6300,
            "byteOffset" : 95684
        },
        {
            "buffer" : 0,
            "byteLength" : 6300,
            "byteOffset" : 101984
        },
        {
            "buffer" : 0,
            "byteLength" : 4200,
            "byteOffset" : 108284
        },
        {
            "buffer" : 0,
            "byteLength" : 3072,
            "byteOffset" : 112484
        },
        {
            "buffer" : 0,
            "byteLength" : 48,
            "byteOffset" : 115556
        },
        {
            "buffer" : 0,
            "byteLength" : 48,
            "byteOffset" : 115604
        },
        {
            "buffer" : 0,
            "byteLength" : 32,
            "byteOffset" : 115652
        },
        {
            "buffer" : 0,
            "byteLength" : 12,
            "byteOffset" : 115684
        },
        {
            "buffer" : 0,
            "byteLength" : 48,
            "byteOffset" : 115696
        },
        {
            "buffer" : 0,
            "byteLength" : 48,
            "byteOffset" : 115744
        },
        {
            "buffer" : 0,
            "byteLength" : 32,
            "byteOffset" : 115792
        },
        {
            "buffer" : 0,
            "byteLength" : 3264,
            "byteOffset" : 115824
        },
        {
            "buffer" : 0,
            "byteLength" : 3264,
            "byteOffset" : 119088
        },
        {
            "buffer" : 0,
            "byteLength" : 2176,
            "byteOffset" : 122352
        },
        {
            "buffer" : 0,
            "byteLength" : 1422,
            "byteOffset" : 124528
        },
        {
            "buffer" : 0,
            "byteLength" : 20400,
            "byteOffset" : 125952
        },
        {
            "buffer" : 0,
            "byteLength" : 20400,
            "byteOffset" : 146352
        },
        {
            "buffer" : 0,
            "byteLength" : 13600,
            "byteOffset" : 166752
        },
        {
            "buffer" : 0,
            "byteLength" : 8352,
            "byteOffset" : 180352
        },
        {
            "buffer" : 0,
            "byteLength" : 408,
            "byteOffset" : 188704
        },
        {
            "buffer" : 0,
            "byteLength" : 408,
            "byteOffset" : 189112
        },
        {
            "buffer" : 0,
            "byteLength" : 272,
            "byteOffset" : 189520
        },
        {
            "buffer" : 0,
            "byteLength" : 180,
            "byteOffset" : 189792
        }
    ],
    "samplers" : [
        {
            "magFilter" : 9729,
            "minFilter" : 9987
        }
    ],
    "buffers" : [
        {
            "byteLength" : 189972,
            "uri" : "data:application/octet-stream;base64,"
        }
    ]
}
